<svg xmlns="http://www.w3.org/2000/svg" viewBox="0 0 484.74 330.25"><defs><style>.cls-1{fill:#be1622;}.cls-2{fill:#e6332a;}.cls-3{fill:#1d1d1b;}.cls-4{fill:#fff;}</style></defs><g id="Layer_2" data-name="Layer 2"><g id="skollet"><path class="cls-1" d="M528.44,319.42l-39.63.08-24.64-17.57H384V193.46s1.73-52.78,8.9-63.43a2,2,0,0,1,2.45-.84l19.22,7.93a2,2,0,0,0,.58.14c5.75.4,93.6,6.9,95.18,32.09a3.45,3.45,0,0,0,.07.55l7.35,37.26c.38,1.69-16.06,5.67-17.44,5.8-14.54,1.38-67.23,2.12-82.06,1.73-1.73,0-10.69-1.35-10.25.77,2,9.54,9.74,34,14.23,37.28,3.84,2.84,13.68,4,43.87,11.51,5.52,1.38,28.55,6.39,32.29,8.75,6.89,4.35,27.07,15.95,26.9,15.94v7.13a3,3,0,0,0,1.35,2.66l2.08,1.19a3.15,3.15,0,0,1,1.34,3Z" transform="translate(-45.37 -129.04)"/><path class="cls-1" d="M407.27,373.17H385c-1.27,0-1-7.14-1-8.76V315.53l22.91-.41,54.74-.74,24,19.27h39.47l.27.31a3.27,3.27,0,0,1,.76,2.16v28.94a3.14,3.14,0,0,1-1.07,2.47c-1.89,1.51-6.07,4.31-10.9,4.16H484c-1.78,0-3.13-1.6-3.56-3.8-2.12-10.79-9.79-41.11-31.46-40.62-24.26.55-30.49,27.2-32.74,42.25-.32,2.1-1.45,3.65-3.13,3.65Z" transform="translate(-45.37 -129.04)"/><path class="cls-1" d="M354.3,373.17H391l-.36-57.64-322.4-2.16c-1.4,0-2.5,1.51-2.37,3.28l.6,7.89c.16.82,1.49,9.29,1.68,10.09,3.34,14.09,7.39,23.64,14.93,30.95a25.75,25.75,0,0,0,18,7.59H109c3.42,0,6.87-3.44,7.62-7.67,3.46-19.6,12.73-38.3,29.75-38.3,17.32,0,29.21,17.69,32.45,37.47.76,4.68,4.47,8.5,8.24,8.5H354.3Z" transform="translate(-45.37 -129.04)"/><path class="cls-2" d="M520.93,265.58,519.14,221c-.07-1.86-1.45-3.2-2.89-2.82L500,222.6H417.25c1.72,1.89,3,21.76,10.68,24.75,24.22,9.48,68.65,12.45,72.24,16.64l18.63,10.3c1,.52,2.13-.44,2.13-1.83Z" transform="translate(-45.37 -129.04)"/><path class="cls-2" d="M169.15,325.52A183.83,183.83,0,0,1,189,351.37a3,3,0,0,0,3,1.41l121-21.43c3.7-.65,3.36-6.8-.38-6.93L171.36,319.5C168.52,319.4,167.08,323.31,169.15,325.52Z" transform="translate(-45.37 -129.04)"/></g></g><g id="Layer_1" data-name="Layer 1"><g id="beda3a"><path class="cls-1" d="M259.55,240c-1.65,0-3-.63-3-1.39s1.35-1.4,3-1.4h13.12a2.66,2.66,0,0,0,2.69-3l-7.26-71.85c-.07-.68-.46-1.19-.92-1.19H254.12c-.52,0-.94-.63-.94-1.4h0c0-.77.42-1.4.94-1.4h12.49c.58,0,1-.76.93-1.6l-2.69-26.57c-.06-.68-.46-1.19-.92-1.19H220.07a2.81,2.81,0,1,0,0,5.6h33.49c.51,0,.93.62.93,1.39h0c0,.78-.42,1.4-.93,1.4h-5.17a3.4,3.4,0,0,0-3.3,3l-3,29.53c-.14,1.37-.92,2.38-1.85,2.38H226c-1,0-1.87,1.25-1.87,2.79h0c0,1.55.83,2.8,1.87,2.8h20.42c.52,0,.94.63.94,1.4h0c0,.77-.42,1.4-.94,1.4H244a3.4,3.4,0,0,0-3.3,3L231,280a2.66,2.66,0,0,0,2.7,3h8.71a3.36,3.36,0,0,0,3.27-3l2.27-25.44a3.35,3.35,0,0,1,3.27-3h8.57a3.35,3.35,0,0,1,3.27,3l.87,9.74a2.71,2.71,0,0,1-2.74,3H253.3a2.81,2.81,0,1,0,0,5.6h13.34c1.07,0,2,.62,2,1.39a1.67,1.67,0,0,1-1.84,1.4c-1,0-1.72,1.35-1.57,3l.12,1.33a3.35,3.35,0,0,0,3.26,3h8.72a2.67,2.67,0,0,0,2.7-3l-3.74-37a3.41,3.41,0,0,0-3.3-3Zm-5.17-57.93c.14-1.64.36-3.88.47-5s.4-2,.63-2,.52.9.64,2,.33,3.34.47,5l2.9,32.43c.15,1.68-.72,3.17-1.85,3.17h-1.16c-1,0-1.87,1.25-1.87,2.8h0c0,1.54.83,2.79,1.87,2.79h10.71c.52,0,.94.63.94,1.4h0c0,.77-.42,1.4-.94,1.4h-3.66c-1.65,0-3,.36-2.93.81s-1.28.81-2.93.81h-6.3c-.57,0-1-.74-.93-1.58Z" transform="translate(-45.37 -129.04)"/><path class="cls-1" d="M103.21,290.23h0c0-.77.42-1.39.94-1.39h20.5a.9.9,0,0,0,.76-.57l.45-1c3.5-8,4.9-18.22,4.9-29.74a86,86,0,0,0-1.68-18.86c-1.53-6.72-3.32-11.59-5.51-15a8.9,8.9,0,0,1,0-8.73,40.05,40.05,0,0,0,4.15-9.15c1.54-5,2-10.48,2-17.81,0-4.49-.38-9.16-.38-9.16a3.31,3.31,0,0,0-3.24-3h-8.74c-.52,0-.94-.63-.94-1.4h0c0-.77.42-1.4.94-1.4h10.19c.62,0,1.06-.89.9-1.78a50.18,50.18,0,0,0-1.58-6.49,1,1,0,0,0-.85-.78H110.47c-.52,0-.93-.63-.93-1.4h0c0-.77.41-1.4.93-1.4h13.14c.79,0,1.22-1.37.72-2.3a28.2,28.2,0,0,0-1.69-2.74c-4.49-6.29-16.84-8.47-16.84-8.47-1.62-.28-3-.52-3-.53H67.3c-1,0-1.87,1.25-1.87,2.79h0c0,1.55.83,2.8,1.87,2.8h34.61c.52,0,.94.63.94,1.4h0c0,.77-.42,1.4-.94,1.4H90.59c-1,0-1.87,1.25-1.87,2.79v49.49c0,1.55-.84,2.8-1.87,2.8H56.44c-1,0-1.87,1.25-1.87,2.8h0c0,1.54.84,2.79,1.87,2.79H91.06c.52,0,.93.63.93,1.4h0c0,.77-.41,1.4-.93,1.4h-1.4c-.52,0-.94.62-.94,1.4v70.06c0,2.79-1.51,5-3.37,5H73.2a2.8,2.8,0,1,0,0,5.59h31.16a27.18,27.18,0,0,0,5.89-.78s7.81-2.13,11.3-6.13c.73-.83.32-2.57-.59-2.57H104.15C103.63,291.63,103.21,291,103.21,290.23Zm.65-118.9c0-1,.54-1.78,1.2-1.75a7.89,7.89,0,0,1,5.52,2.29c2.53,2.52,4.49,7.54,4.49,18.23s-2,15.71-4.49,18.22a7.91,7.91,0,0,1-5.52,2.3c-.66,0-1.2-.77-1.2-1.76Zm0,61.4c0-.76.4-1.38.92-1.39a7.25,7.25,0,0,1,5.8,2.33c1.33,1.43,2.5,3.81,3.32,7.57.19.9-.26,1.83-.9,1.83h-4.91c-1,0-1.88,1.25-1.88,2.8h0c0,1.54.84,2.79,1.88,2.79H121.7c.51,0,.93.63.93,1.4h0c0,.77-.42,1.4-.93,1.4H118c-1.65,0-3,1-2.94,2.31V255c0,12.57-2,18.64-4.49,21.37a7.23,7.23,0,0,1-5.8,2.32c-.52,0-.92-.62-.92-1.39Z" transform="translate(-45.37 -129.04)"/><path class="cls-1" d="M371.76,277.24h0c0-.78.42-1.4.93-1.4h5.15c.57,0,1-.76.92-1.61l-3.19-31.62c-.07-.68-.47-1.19-.93-1.19H359c-.51,0-.93-.62-.93-1.4h0c0-.77.42-1.39.93-1.39h15.05c.57,0,1-.77.92-1.61l-8.65-85.62a3.4,3.4,0,0,0-3.3-3H359c-.52,0-.93-.63-.93-1.4h0c0-.77.41-1.4.93-1.4h5.72c.57,0,1-.76.92-1.61l-1.27-12.59c-.14-1.37-.92-2.38-1.85-2.38H318c-1,0-1.88,1.25-1.88,2.8h0c0,1.54.84,2.8,1.88,2.8h34.61c.52,0,.93.62.93,1.39h0c0,.78-.41,1.4-.93,1.4h-5.47c-1.39,0-2.57,1.52-2.78,3.57l-.48,4.83c-.07.68-.47,1.19-.93,1.19h-12.9a2.8,2.8,0,1,0,0,5.59h17.32c.52,0,.94.63.94,1.4h0c0,.77-.42,1.4-.94,1.4h-3.66c-.46,0-.85.5-.92,1.19l-5.65,55.92c-.14,1.36-.93,2.37-1.85,2.37H322.36c-1,0-1.87,1.26-1.87,2.8h0c0,1.54.84,2.8,1.87,2.8h20.43c.51,0,.93.62.93,1.4h0c0,.77-.42,1.39-.93,1.39h-5.91c-.47,0-.86.51-.93,1.19L330.84,275c-.14,1.37-.92,2.38-1.85,2.38h-3.15c-1,0-1.87,1.25-1.87,2.79h0c0,1.55.83,2.8,1.87,2.8h17.44c.84,0,1.55-.93,1.67-2.18L347,257.31c.3-3.28,2.17-5.73,4.38-5.73h6.84c2.22,0,4.09,2.45,4.38,5.73l2.1,23.51c.11,1.25.82,2.18,1.66,2.18h12c.65,0,1.15-.87,1-1.83h0c-.14-1.46-1-2.54-2-2.54h-4.8C372.18,278.63,371.76,278,371.76,277.24Zm-18-95.15c.15-1.64.37-3.88.48-5s.4-2,.63-2,.52.9.63,2,.33,3.34.48,5l1.21,13.54c.15,1.64-.05,3-.45,3h0c-1,0-1.87,1.25-1.87,2.79h0c0,1.55.84,2.8,1.87,2.8h6.91c.52,0,.94.63.94,1.4h0c0,.77-.42,1.4-.94,1.4h-2.44a2.71,2.71,0,0,0-2.74,3l1.45,16.13c.07.84-.37,1.58-.93,1.58h-8.24c-.56,0-1-.74-.92-1.58Z" transform="translate(-45.37 -129.04)"/><path class="cls-1" d="M196.61,288.84h0c0-.78.42-1.4.93-1.4h18.91c1.65,0,3.26-.66,3.59-1.46l.27-.79c2.74-8.17,3.84-19.9,4.25-36.47,0-.79-.4-1.46-.93-1.46H218c-.52,0-.94-.62-.94-1.39h0c0-.78.42-1.4.94-1.4h5.73c.51,0,.92-.6.94-1.36.09-5.75.12-12,.12-18.87,0-30.16-.56-49.43-4.49-61.16s-22.7-15.35-22.7-15.35a37.11,37.11,0,0,0-6-.57h-7c-1,0-1.87,1.25-1.87,2.79v2.66a3,3,0,0,1-3,3h-6.91c-1,0-1.88,1.25-1.88,2.79h0c0,1.55.84,2.8,1.88,2.8h14.64c1.65,0,3,.63,3,1.4s-1.35,1.4-3,1.4h-1.73a3,3,0,0,0-3,3v73.27c0,1.55-.84,2.8-1.87,2.8H165.82c-1,0-1.87,1.25-1.87,2.8h0c0,1.54.84,2.79,1.87,2.79h20.43c.51,0,.93.63.93,1.4h0c0,.77-.42,1.4-.93,1.4h-2.56c-.52,0-.94.62-.94,1.4v39.86c0,1.55-.84,2.8-1.87,2.8H157.79c-1,0-1.87,1.25-1.87,2.8h0c0,1.54.83,2.79,1.87,2.79H194c.37,0,2-.18,3.64-.4,0,0,14.37-1.95,18.87-8,.63-.86.21-2.44-.64-2.44H197.54C197,290.23,196.61,289.61,196.61,288.84Zm1.28-116.21c0-1.59.89-2.87,2-2.79,4,.28,6.38,1.75,7.72,8.11.31,1.7.6,3.74.83,6.12.17,1.7-.7,3.23-1.85,3.23h-4.33c-1,0-1.87,1.25-1.87,2.8h0c0,1.54.84,2.79,1.87,2.79h13.93c.51,0,.93.63.93,1.4h0c0,.77-.42,1.4-.93,1.4H212a3,3,0,0,0-3,3s.09,13.56.09,25.34c0,12.57,0,22.41-.14,29.74a99,99,0,0,1-1.4,16.34c-1.54,7.54-6.69,8.07-6.69,8.07a2.65,2.65,0,0,1-3-2.69Z" transform="translate(-45.37 -129.04)"/><path class="cls-1" d="M303.4,293h0c0-.77.42-1.4.93-1.4h14.76a.91.91,0,0,0,.79-.63,46,46,0,0,0,2.45-7.27,127.59,127.59,0,0,0,2.25-14.61c.15-1.64.32-4.34.39-6,0,0,0-.78,0-1.41,0-3.52-.05-7-.2-10.31-.06-1.55-.92-2.76-2-2.76H315.5c-.51,0-.93-.62-.93-1.4h0c0-.77.42-1.39.93-1.39h6.69c1.21,0,2.14-1.61,1.94-3.39-1.06-9.63-6.48-20.38-6.48-20.38a24.09,24.09,0,0,1-1.28-2.78c0-.06.59-1.36,1.21-2.88,0,0,6.15-15,6.15-37.86a63.55,63.55,0,0,0-2.66-18c-2.28-7-11.83-13.22-11.83-13.22a26.31,26.31,0,0,1-2.51-1.75,20.76,20.76,0,0,0-3-.11H272.31a2.8,2.8,0,1,0,0,5.59h33.48c.52,0,.94.63.94,1.4h0c0,.77-.42,1.4-.94,1.4H295.37c-3.48,0-6.61,3.14-7.93,7.95h0c-2.53,9.43-2.65,26.74-2.65,26.74a3,3,0,0,0,3,3h8.86a3.07,3.07,0,0,0,3.05-3l.65-15a33.26,33.26,0,0,1,1.2-5.84s.76-2.38,2.58-2.38c2.39,0,3.65,2.72,4.21,6.7a100.84,100.84,0,0,1,.56,13.2V198c0,.35-1.37.64-3,.64H293.21c-1,0-1.87,1.25-1.87,2.79h0c0,1.55.84,2.8,1.87,2.8h20.42c.52,0,.94.63.94,1.4h0c0,.77-.42,1.4-.94,1.4H308a.93.93,0,0,0-.77.61c-1.45,2.95-4.14,4.4-8.95,5-.49.06-.86.66-.86,1.4v16.15c0,.78.41,1.4.93,1.4h0c.18,0,1.62.28,3.2.63s5.16,3.3,5.9,4.78l2.63,10.24c.13,1.65.21,4.34.18,6,0,0-.09,5.38-.09,10.2a96.05,96.05,0,0,1-.56,13c-.56,3.77-1.82,6.49-4.21,6.49-1.82,0-3.08-1.26-3.92-5.45-.76-3.6-1.18-9.28-1.25-18,0-1.53-.85-2.77-1.87-2.77h-10c-1.65,0-3,0-3,0s-1.35,0-3,0h-.66c-1,0-1.87,1.26-1.87,2.8h0c0,1.54.84,2.8,1.87,2.8h13.24c.51,0,.93.62.93,1.39h0c0,.78-.42,1.4-.93,1.4h-8.44c-.54,0-1,.68-.94,1.49a86.45,86.45,0,0,0,2.75,19.6c2.66,9.43,7.56,16.55,17.09,16.55a12.07,12.07,0,0,0,8.13-2.72,18.48,18.48,0,0,0,3-3.2c.64-.85.22-2.44-.64-2.44H304.33C303.82,294.43,303.4,293.8,303.4,293Z" transform="translate(-45.37 -129.04)"/><path class="cls-1" d="M174.35,272.85a3,3,0,0,0-3-3H158c-.51,0-.93-.63-.93-1.4h0c0-.78.42-1.4.93-1.4h13.38a3,3,0,0,0,3-3v-1.3a3,3,0,0,0-3-3H155.8c-.51,0-.93-.63-.93-1.4V221.23c0-2.09,1.13-3.79,2.54-3.79h9.52c1.08,0,1.95-1.31,1.95-2.91h0c0-1.61-.87-2.92-1.95-2.92h-7.75c-.52,0-.94-.62-.94-1.39h0c0-.78.42-1.4.94-1.4H167c1,0,1.84-1.24,1.84-2.76v-2.28c0-1.52-.82-2.75-1.84-2.75H154.22c-.51,0-.93-.63-.93-1.4h0c0-.78.42-1.4.93-1.4H167c1,0,1.84-1.23,1.84-2.76h0c0-1.52-.82-2.75-1.84-2.75H155.8c-.51,0-.93-.63-.93-1.4V168.4a3,3,0,0,0-3-3h-4.22c-.52,0-.93-.63-.93-1.4h0c0-.77.41-1.4.93-1.4h6.28c.52,0,.94-.63.94-1.4v-7.51c0-.77.42-1.4.93-1.4h17.61c.52,0,.94-.62.94-1.4V137.43c0-.77-.42-1.4-.94-1.4h-7.94c-.51,0-.93-.62-.93-1.39h0c0-.78.42-1.4.93-1.4h7.47c.78,0,1.41-.94,1.41-2.1h0c0-1.16-.63-2.1-1.41-2.1h-59c-1,0-1.87,1.25-1.87,2.8h0c0,1.54.84,2.8,1.87,2.8h34.62c.52,0,.93.62.93,1.39h0c0,.78-.41,1.4-.93,1.4h-7.87c-.52,0-.94.63-.94,1.4v73.06a3,3,0,0,1-3,3h-6c-1,0-1.87,1.26-1.87,2.8h0c0,1.54.84,2.8,1.87,2.8h16.71c.51,0,.93.62.93,1.4h0c0,.77-.42,1.39-.93,1.39h-4.72a3,3,0,0,0-3,3v48.13a3,3,0,0,1-3,3h-4a2.8,2.8,0,1,0,0,5.59h38.64a3,3,0,0,0,3-3Z" transform="translate(-45.37 -129.04)"/><rect class="cls-1" x="5.21" y="18.11" width="7.98" height="5" rx="2.5"/><rect class="cls-1" y="81.58" width="6.37" height="5" rx="2.5"/><rect class="cls-1" x="44.79" width="17.68" height="5" rx="2.5"/><rect class="cls-1" x="152.52" width="13.52" height="5" rx="2.5"/><rect class="cls-1" x="8.52" y="166.48" width="13.35" height="5.59" rx="2.5"/><rect class="cls-1" x="94.39" y="166.48" width="10.57" height="5.59" rx="2.5"/></g><path class="cls-3" d="M68.69,417.16l1.16-6,460.26-.1-1.17,6-450.06.11L72.48,451H67.23l6.41-33.87Z" transform="translate(-45.37 -129.04)"/><path class="cls-3" d="M93.83,431.56a4.07,4.07,0,0,0-1.31-.18,4.41,4.41,0,0,0-2.67.75,3.31,3.31,0,0,0-1.6,2.2L84.37,451h-4.9l5.63-24H90l-.63,2.68a5.29,5.29,0,0,1,1.55-1.76,6.74,6.74,0,0,1,4-1.28Z" transform="translate(-45.37 -129.04)"/><path class="cls-3" d="M103.1,432.7a3.45,3.45,0,0,0,.2-1.45.92.92,0,0,0-1-.75c-.83,0-1.26.57-1.6,1.28-.15.35-.25.74-.39,1.14-.05.22-.1.4-.15.57s0,.4-.09.57H95.14l.2-1a8.83,8.83,0,0,1,3-4.53,8.28,8.28,0,0,1,5.14-1.89,5,5,0,0,1,3.84,1.54,4.07,4.07,0,0,1,.87,3.91l-3.44,14.78a18,18,0,0,0-.64,4.17h-4.8a2.62,2.62,0,0,1,0-1.93h-.34a7.58,7.58,0,0,1-1.7,1.45,5.51,5.51,0,0,1-2.77.83,2.6,2.6,0,0,1-2.18-1.09c-.63-.84-1-2.34-.39-4.84a11.29,11.29,0,0,1,3.45-5.94,15.81,15.81,0,0,1,4.46-2.72,7.23,7.23,0,0,0,2.67-1.45Zm-1.55,6.73a7.15,7.15,0,0,0-4.66,5.36,3.16,3.16,0,0,0-.1,1.32c.15.53.34.92.93.92a2.36,2.36,0,0,0,2.37-1.45Z" transform="translate(-45.37 -129.04)"/><path class="cls-3" d="M112.47,451h-4.9l5.63-24h4.9l-.48,2a3,3,0,0,0,.68-.49c.34-.22.73-.48,1.16-.79a5.39,5.39,0,0,1,2.67-1.1,2.56,2.56,0,0,1,2.48,1.59,5.59,5.59,0,0,1,.14,3.12L120.14,451h-4.9l4.47-19c.19-.93-.34-1.06-.93-1.06a2.12,2.12,0,0,0-1.31.57l-.29.27a2.09,2.09,0,0,0-.29.3Z" transform="translate(-45.37 -129.04)"/><path class="cls-3" d="M135.53,433.14a5.85,5.85,0,0,0,.24-1.85,1.09,1.09,0,0,0-1.16-1,1.82,1.82,0,0,0-1.46,1,5.58,5.58,0,0,0-.73,1.85,3,3,0,0,0,.54,2.24,12.48,12.48,0,0,0,1.65,2.07,13.6,13.6,0,0,1,2.33,3.16,6.68,6.68,0,0,1,.48,4.18,9,9,0,0,1-2.42,4.4,7.5,7.5,0,0,1-5.39,2.19c-3,0-4.42-1.18-5.05-2.72a7.55,7.55,0,0,1-.1-4.62H129a5.86,5.86,0,0,0-.15,2.29,1.53,1.53,0,0,0,1.6,1.36c1.41,0,2-1.49,2.38-2.9s-.87-2.9-2.09-4.26a15.71,15.71,0,0,1-2.42-3.13,6.05,6.05,0,0,1-.49-4.26,9.57,9.57,0,0,1,2.23-4.31,7.37,7.37,0,0,1,5.25-2.2c2.91,0,4.27.93,4.8,2.2a7.29,7.29,0,0,1,0,4.31Z" transform="translate(-45.37 -129.04)"/><path class="cls-3" d="M144.51,427h4.9l-.39,1.58a12.05,12.05,0,0,1,2.92-1.63,3.08,3.08,0,0,1,1.4-.31,2.7,2.7,0,0,1,2.58,1.59,5.59,5.59,0,0,1,.14,3.12l-3.59,15.34a7.54,7.54,0,0,1-1.6,3.08,4.61,4.61,0,0,1-3.3,1.62,4.22,4.22,0,0,1-2.43-1c-.34-.31-.68-.62-1-1l-2.28,9.85h-4.9Zm.49,18.77a1.2,1.2,0,0,0,1.11,1.45,1.82,1.82,0,0,0,1.65-1.45l3.16-13.5c.19-.83-.25-1.45-1-1.45a2,2,0,0,0-1.8,1.45Z" transform="translate(-45.37 -129.04)"/><path class="cls-3" d="M168.63,445.19a8.51,8.51,0,0,1-3.88,5.23,6.94,6.94,0,0,1-3.88,1,5.12,5.12,0,0,1-3.4-1,3.66,3.66,0,0,1-1.36-2.15,7.85,7.85,0,0,1-.05-3.17L158.93,433a9,9,0,0,1,3.88-5.36,6.55,6.55,0,0,1,3.83-1,5.69,5.69,0,0,1,3.45,1,3.76,3.76,0,0,1,1.36,2.15,6.6,6.6,0,0,1,.05,3.08ZM166.89,433a2.52,2.52,0,0,0-.15-2.11,1.25,1.25,0,0,0-1-.35,2,2,0,0,0-1.8,1.23,2.59,2.59,0,0,0-.43,1.23l-2.87,12.09a2.48,2.48,0,0,0,.15,2.07,1.25,1.25,0,0,0,1,.35,1.94,1.94,0,0,0,1.8-1.19,2.55,2.55,0,0,0,.43-1.23Z" transform="translate(-45.37 -129.04)"/><path class="cls-3" d="M185.09,431.56a4.11,4.11,0,0,0-1.31-.18,4.37,4.37,0,0,0-2.67.75,3.25,3.25,0,0,0-1.6,2.2L175.62,451h-4.9l5.63-24h4.91l-.64,2.68a5.49,5.49,0,0,1,1.56-1.76,6.74,6.74,0,0,1,4-1.28Z" transform="translate(-45.37 -129.04)"/><path class="cls-3" d="M195.58,421.05,194.22,427h3.35l-1,4h-3.35l-2.76,11.95a10.22,10.22,0,0,0-.44,2.51c.05.83.24,1.45,1,1.45a10,10,0,0,0,1.26-.09.75.75,0,0,1,.29,0,.63.63,0,0,0,.3,0l-1,4.36a2.92,2.92,0,0,0-.34.08c-.15,0-.3,0-.44.09a10.87,10.87,0,0,1-1.89.13c-2.92,0-3.89-1.27-4.23-3a12.52,12.52,0,0,1,.49-5.1l2.86-12.3h-2.47l1-4h2.47l1.36-5.94Z" transform="translate(-45.37 -129.04)"/><path class="cls-3" d="M216.4,431.56a4.15,4.15,0,0,0-1.31-.18,4.37,4.37,0,0,0-2.67.75,3.25,3.25,0,0,0-1.6,2.2L206.93,451H202l5.63-24h4.9l-.63,2.68a5.36,5.36,0,0,1,1.56-1.76,6.73,6.73,0,0,1,4-1.28Z" transform="translate(-45.37 -129.04)"/><path class="cls-3" d="M227.47,445.19a8.57,8.57,0,0,1-3.89,5.23,6.94,6.94,0,0,1-3.88,1,5.14,5.14,0,0,1-3.4-1,3.66,3.66,0,0,1-1.36-2.15,7.85,7.85,0,0,1-.05-3.17L217.76,433a9.05,9.05,0,0,1,3.88-5.36,6.56,6.56,0,0,1,3.84-1,5.68,5.68,0,0,1,3.44,1,3.76,3.76,0,0,1,1.36,2.15,6.6,6.6,0,0,1,.05,3.08ZM225.72,433a2.52,2.52,0,0,0-.15-2.11,1.25,1.25,0,0,0-1-.35,2,2,0,0,0-1.79,1.23,2.49,2.49,0,0,0-.44,1.23l-2.87,12.09a2.48,2.48,0,0,0,.15,2.07,1.25,1.25,0,0,0,1,.35,1.94,1.94,0,0,0,1.8-1.19,2.45,2.45,0,0,0,.43-1.23Z" transform="translate(-45.37 -129.04)"/><path class="cls-3" d="M242.76,427h4.9L242,451h-4.9l.43-2a4.14,4.14,0,0,0-.63.44,16.71,16.71,0,0,1-2.47,1.58,4.51,4.51,0,0,1-1.41.35,2.42,2.42,0,0,1-2.43-1.62,5,5,0,0,1-.14-3.08L235.09,427H240l-4.47,19c-.24.92.34,1.06.93,1.06a2,2,0,0,0,1.26-.58,3.43,3.43,0,0,0,.58-.57Z" transform="translate(-45.37 -129.04)"/><path class="cls-3" d="M258.82,421.05,257.46,427h3.35l-1,4h-3.35l-2.76,11.95a10.22,10.22,0,0,0-.44,2.51c.05.83.24,1.45,1,1.45a10,10,0,0,0,1.26-.09.75.75,0,0,1,.29,0,.58.58,0,0,0,.29,0l-1,4.36c-.14,0-.24,0-.34.08s-.29,0-.43.09a10.92,10.92,0,0,1-1.9.13c-2.91,0-3.88-1.27-4.22-3a12.52,12.52,0,0,1,.49-5.1l2.86-12.3h-2.48l1-4h2.47l1.36-5.94Z" transform="translate(-45.37 -129.04)"/><path class="cls-3" d="M257.8,451l5.63-24h4.91l-5.63,24Zm7.58-32.31h4.9l-1.07,4.44h-4.9Z" transform="translate(-45.37 -129.04)"/><path class="cls-3" d="M280.86,442.42l-.63,2.77a8.63,8.63,0,0,1-3.93,5.23,7,7,0,0,1-3.89,1c-3.15,0-4.41-1.58-4.8-3.16a7.85,7.85,0,0,1-.05-3.17L270.42,433a9.25,9.25,0,0,1,4-5.36,6.6,6.6,0,0,1,3.84-1,5.72,5.72,0,0,1,3.45,1,3.87,3.87,0,0,1,1.36,2.15,6.48,6.48,0,0,1,0,3.08l-1.6,7h-8.1l-1.27,5.23a2.89,2.89,0,0,0,.29,2.07,1.29,1.29,0,0,0,1,.35,1.93,1.93,0,0,0,1.79-1.19,2.94,2.94,0,0,0,.49-1.23l.63-2.63Zm-6.7-6.07h3.55l.82-3.39a2.56,2.56,0,0,0-.19-2.11,1.29,1.29,0,0,0-1-.35,2.1,2.1,0,0,0-1.85,1.23A4.62,4.62,0,0,0,275,433Z" transform="translate(-45.37 -129.04)"/><path class="cls-3" d="M296.59,431.56a4.15,4.15,0,0,0-1.31-.18,4.37,4.37,0,0,0-2.67.75,3.25,3.25,0,0,0-1.6,2.2L287.12,451h-4.9l5.63-24h4.9l-.63,2.68a5.36,5.36,0,0,1,1.56-1.76,6.73,6.73,0,0,1,4-1.28Z" transform="translate(-45.37 -129.04)"/><path class="cls-3" d="M314,451h-4.9l.34-1.58a12.7,12.7,0,0,1-2.86,1.63,3.48,3.48,0,0,1-1.46.3,2.42,2.42,0,0,1-2.47-1.62,4.75,4.75,0,0,1-.2-3.08l3.59-15.34a6.65,6.65,0,0,1,1.65-3.12,4.28,4.28,0,0,1,3.21-1.59,4.2,4.2,0,0,1,2.42,1c.34.31.68.62,1,1l2.33-9.85h4.91Zm-.53-18.77a1.18,1.18,0,0,0-1.12-1.45,1.84,1.84,0,0,0-1.65,1.45l-3.15,13.5c-.2.83.24,1.45,1,1.45a2,2,0,0,0,1.8-1.45Z" transform="translate(-45.37 -129.04)"/><path class="cls-3" d="M332.17,442.42l-.63,2.77a8.66,8.66,0,0,1-3.93,5.23,7,7,0,0,1-3.89,1c-3.15,0-4.42-1.58-4.8-3.16a7.5,7.5,0,0,1-.05-3.17L321.73,433a9.25,9.25,0,0,1,4-5.36,6.58,6.58,0,0,1,3.84-1,5.66,5.66,0,0,1,3.44,1,3.76,3.76,0,0,1,1.36,2.15,6.47,6.47,0,0,1,0,3.08l-1.6,7h-8.11l-1.26,5.23a2.84,2.84,0,0,0,.29,2.07,1.29,1.29,0,0,0,1,.35,1.94,1.94,0,0,0,1.8-1.19,2.81,2.81,0,0,0,.48-1.23l.64-2.63Zm-6.7-6.07H329l.83-3.39a2.52,2.52,0,0,0-.2-2.11,1.25,1.25,0,0,0-1-.35,2.09,2.09,0,0,0-1.84,1.23,4.31,4.31,0,0,0-.53,1.23Z" transform="translate(-45.37 -129.04)"/><path class="cls-3" d="M353.67,451h-4.61l4.47-19c.19-.93-.54-1.06-1.07-1.06a2.51,2.51,0,0,0-1.46.57,5.4,5.4,0,0,0-.68.57L345.9,451H341l5.63-24h4.9l-.48,2a3,3,0,0,0,.68-.49,27,27,0,0,1,2.62-1.58,2.86,2.86,0,0,1,1.31-.31c1.75,0,2.48,1.28,2.72,2.69a2,2,0,0,0,.39-.27,2.43,2.43,0,0,1,.53-.39,13.87,13.87,0,0,1,2.77-1.67,3.73,3.73,0,0,1,1.36-.36,2.54,2.54,0,0,1,2.47,1.59,5.68,5.68,0,0,1,.15,3.12L361.44,451h-4.61l4.46-19c.2-.93-.53-1.06-1.07-1.06a2.51,2.51,0,0,0-1.45.57,4.77,4.77,0,0,0-.68.57Z" transform="translate(-45.37 -129.04)"/><path class="cls-3" d="M376.92,432.7a3.62,3.62,0,0,0,.2-1.45.92.92,0,0,0-1-.75c-.83,0-1.26.57-1.6,1.28-.15.35-.25.74-.39,1.14-.05.22-.1.4-.15.57s0,.4-.1.57H369l.2-1a8.83,8.83,0,0,1,3-4.53,8.28,8.28,0,0,1,5.14-1.89,5,5,0,0,1,3.84,1.54,4.07,4.07,0,0,1,.87,3.91l-3.45,14.78a18.36,18.36,0,0,0-.63,4.17h-4.8a2.62,2.62,0,0,1,0-1.93h-.34a7.58,7.58,0,0,1-1.7,1.45,5.51,5.51,0,0,1-2.77.83,2.6,2.6,0,0,1-2.18-1.09c-.63-.84-1-2.34-.39-4.84a11.29,11.29,0,0,1,3.45-5.94,15.81,15.81,0,0,1,4.46-2.72,7.23,7.23,0,0,0,2.67-1.45Zm-1.55,6.73a7.15,7.15,0,0,0-4.66,5.36,2.87,2.87,0,0,0-.1,1.32c.15.53.34.92.92.92a2.36,2.36,0,0,0,2.38-1.45Z" transform="translate(-45.37 -129.04)"/><path class="cls-3" d="M395.76,431.56a4.15,4.15,0,0,0-1.31-.18,4.37,4.37,0,0,0-2.67.75,3.3,3.3,0,0,0-1.61,2.2L386.29,451h-4.9L387,427h4.9l-.63,2.68a5.42,5.42,0,0,1,1.55-1.76,6.79,6.79,0,0,1,4-1.28Z" transform="translate(-45.37 -129.04)"/><path class="cls-3" d="M399.11,445.49c-.2.88-.39,1.94.92,1.94,1.11,0,1.5-.49,1.84-1.94l.78-3.34h4.9l-.53,2.33c-.63,2.68-1.55,4.4-2.87,5.45a7.65,7.65,0,0,1-5,1.45,5.16,5.16,0,0,1-4.13-1.53c-.83-1.1-1.12-2.91-.49-5.59l2.48-10.5a9.8,9.8,0,0,1,3.11-5.59,7.48,7.48,0,0,1,4.8-1.54c2.09,0,3.59.4,4.37,1.45s1,2.77.34,5.46l-.44,1.89h-4.9l.68-2.91c.34-1.45.15-1.93-1-1.93-1.31,0-1.6,1.06-1.8,1.93Z" transform="translate(-45.37 -129.04)"/><path class="cls-3" d="M413.52,451h-4.9l7.57-32.31h4.9L418.67,429a3.26,3.26,0,0,0,.68-.49c.34-.22.72-.48,1.16-.79a5.39,5.39,0,0,1,2.67-1.1,2.56,2.56,0,0,1,2.48,1.59,5.68,5.68,0,0,1,.14,3.12L421.19,451h-4.9l4.46-19c.2-.93-.34-1.06-.92-1.06a2.12,2.12,0,0,0-1.31.57l-.29.27a2.09,2.09,0,0,0-.29.3Z" transform="translate(-45.37 -129.04)"/><path class="cls-3" d="M436.68,432.7a3.62,3.62,0,0,0,.19-1.45.92.92,0,0,0-1-.75c-.82,0-1.26.57-1.6,1.28-.15.35-.24.74-.39,1.14-.05.22-.1.4-.15.57s0,.4-.09.57h-4.91l.2-1a8.9,8.9,0,0,1,3-4.53,8.28,8.28,0,0,1,5.14-1.89,5,5,0,0,1,3.84,1.54,4.07,4.07,0,0,1,.87,3.91l-3.44,14.78a17.79,17.79,0,0,0-.63,4.17h-4.81a2.62,2.62,0,0,1,0-1.93h-.34a7.58,7.58,0,0,1-1.7,1.45,5.45,5.45,0,0,1-2.76.83,2.6,2.6,0,0,1-2.19-1.09c-.63-.84-1-2.34-.39-4.84a11.29,11.29,0,0,1,3.45-5.94,15.81,15.81,0,0,1,4.46-2.72,7.23,7.23,0,0,0,2.67-1.45Zm-1.56,6.73a7.17,7.17,0,0,0-4.66,5.36,3.16,3.16,0,0,0-.1,1.32c.15.53.34.92.93.92a2.38,2.38,0,0,0,2.38-1.45Z" transform="translate(-45.37 -129.04)"/><path class="cls-3" d="M446,451h-4.9l5.63-24h4.9l-.48,2a3,3,0,0,0,.68-.49c.34-.22.73-.48,1.16-.79a5.39,5.39,0,0,1,2.67-1.1,2.56,2.56,0,0,1,2.48,1.59,5.59,5.59,0,0,1,.14,3.12L453.71,451h-4.9l4.47-19c.19-.93-.34-1.06-.93-1.06a2.12,2.12,0,0,0-1.31.57l-.29.27a2.81,2.81,0,0,0-.29.3Z" transform="translate(-45.37 -129.04)"/><path class="cls-3" d="M469.88,451H465l.34-1.58a12.7,12.7,0,0,1-2.86,1.63,3.44,3.44,0,0,1-1.46.3,2.42,2.42,0,0,1-2.47-1.62,4.75,4.75,0,0,1-.2-3.08l3.6-15.34a6.47,6.47,0,0,1,1.65-3.12,3.8,3.8,0,0,1,5.63-.62c.34.31.68.62,1,1l2.33-9.85h4.9Zm-.54-18.77a1.18,1.18,0,0,0-1.11-1.45,1.82,1.82,0,0,0-1.65,1.45l-3.16,13.5c-.19.83.24,1.45,1,1.45a2,2,0,0,0,1.8-1.45Z" transform="translate(-45.37 -129.04)"/><path class="cls-3" d="M473.76,451l5.63-24h4.9l-5.63,24Zm7.57-32.31h4.91l-1.07,4.44h-4.9Z" transform="translate(-45.37 -129.04)"/><path class="cls-3" d="M494.15,433.14a6.15,6.15,0,0,0,.24-1.85,1.1,1.1,0,0,0-1.16-1,1.81,1.81,0,0,0-1.46,1,5.58,5.58,0,0,0-.73,1.85,3,3,0,0,0,.54,2.24,12,12,0,0,0,1.65,2.07,13.6,13.6,0,0,1,2.33,3.16,6.68,6.68,0,0,1,.48,4.18,9,9,0,0,1-2.43,4.4,7.47,7.47,0,0,1-5.38,2.19c-3,0-4.42-1.18-5.05-2.72a7.55,7.55,0,0,1-.1-4.62h4.56a6.05,6.05,0,0,0-.14,2.29,1.53,1.53,0,0,0,1.6,1.36c1.41,0,2-1.49,2.38-2.9s-.88-2.9-2.09-4.26A15.76,15.76,0,0,1,487,437.4a6.11,6.11,0,0,1-.48-4.26,9.57,9.57,0,0,1,2.23-4.31,7.32,7.32,0,0,1,5.24-2.2c2.92,0,4.28.93,4.81,2.2a7.29,7.29,0,0,1-.05,4.31Z" transform="translate(-45.37 -129.04)"/><path class="cls-3" d="M511.77,442.42l-.63,2.77a8.66,8.66,0,0,1-3.93,5.23,7,7,0,0,1-3.89,1c-3.15,0-4.41-1.58-4.8-3.16a7.5,7.5,0,0,1,0-3.17L501.33,433a9.25,9.25,0,0,1,4-5.36,6.58,6.58,0,0,1,3.84-1,5.66,5.66,0,0,1,3.44,1,3.76,3.76,0,0,1,1.36,2.15,6.47,6.47,0,0,1,0,3.08l-1.6,7h-8.11L503,445.05a2.89,2.89,0,0,0,.29,2.07,1.29,1.29,0,0,0,1,.35,1.93,1.93,0,0,0,1.8-1.19,2.94,2.94,0,0,0,.49-1.23l.63-2.63Zm-6.7-6.07h3.54l.83-3.39a2.52,2.52,0,0,0-.2-2.11,1.25,1.25,0,0,0-1-.35,2.09,2.09,0,0,0-1.84,1.23,4.6,4.6,0,0,0-.54,1.23Z" transform="translate(-45.37 -129.04)"/><path class="cls-3" d="M524.73,433.14a6.15,6.15,0,0,0,.24-1.85,1.09,1.09,0,0,0-1.16-1,1.82,1.82,0,0,0-1.46,1,5.58,5.58,0,0,0-.73,1.85,3,3,0,0,0,.54,2.24,12.48,12.48,0,0,0,1.65,2.07,13.6,13.6,0,0,1,2.33,3.16,6.68,6.68,0,0,1,.48,4.18,9,9,0,0,1-2.43,4.4,7.47,7.47,0,0,1-5.38,2.19c-3,0-4.42-1.18-5-2.72a7.55,7.55,0,0,1-.1-4.62h4.56a6.05,6.05,0,0,0-.14,2.29,1.53,1.53,0,0,0,1.6,1.36c1.41,0,2-1.49,2.38-2.9s-.88-2.9-2.09-4.26a15.76,15.76,0,0,1-2.43-3.13,6.11,6.11,0,0,1-.48-4.26,9.57,9.57,0,0,1,2.23-4.31,7.34,7.34,0,0,1,5.24-2.2c2.92,0,4.28.93,4.81,2.2a7.29,7.29,0,0,1-.05,4.31Z" transform="translate(-45.37 -129.04)"/><g id="wheel3"><ellipse class="cls-3" cx="101.72" cy="244.13" rx="26.26" ry="38.47"/><ellipse class="cls-4" cx="101.72" cy="244.13" rx="14.65" ry="21.47"/><path class="cls-3" d="M139,359.3c.54-.82,1.55,0,1.22,1a25.79,25.79,0,0,0-1.35,8.38c0,10.35,5.73,18.74,12.79,18.74a8.36,8.36,0,0,0,1.94-.22c.79-.18,1.2,1.18.51,1.7a9.67,9.67,0,0,1-5.85,2.06c-7.06,0-12.79-8.39-12.79-18.74A23.92,23.92,0,0,1,139,359.3Z" transform="translate(-45.37 -129.04)"/></g><rect class="cls-3" x="45.08" y="274.77" width="49.26" height="4.95" rx="2.47"/><rect class="cls-3" x="58.39" y="266.4" width="38.35" height="4.95" rx="2.47"/><rect class="cls-3" x="54.33" y="252.18" width="32.88" height="4.95" rx="2.47"/><g id="wheel3-2" data-name="wheel3"><ellipse class="cls-3" cx="402.55" cy="243.58" rx="26.26" ry="38.47"/><ellipse class="cls-4" cx="402.55" cy="243.58" rx="14.65" ry="21.47"/><path class="cls-3" d="M439.81,358.75c.53-.83,1.55,0,1.21,1a26.06,26.06,0,0,0-1.34,8.38c0,10.35,5.72,18.74,12.79,18.74a8.94,8.94,0,0,0,1.94-.22c.79-.18,1.19,1.17.5,1.69a9.63,9.63,0,0,1-5.84,2.07c-7.06,0-12.79-8.39-12.79-18.74A23.78,23.78,0,0,1,439.81,358.75Z" transform="translate(-45.37 -129.04)"/></g><rect class="cls-3" x="345.91" y="274.22" width="49.26" height="4.95" rx="2.47"/><rect class="cls-3" x="359.22" y="265.84" width="38.35" height="4.95" rx="2.47"/><rect class="cls-3" x="355.16" y="251.63" width="32.88" height="4.95" rx="2.47"/></g></svg>