<svg id="Layer_1" data-name="Layer 1" xmlns="http://www.w3.org/2000/svg" viewBox="0 0 475.53 282.6"><defs><style>.cls-1{fill:#be1622;}.cls-2{fill:#e6332a;}.cls-3{fill:#1d1d1b;}.cls-4{fill:#fff;}</style></defs><g id="skollet"><path class="cls-1" d="M526.57,345.45l-39.63.08L462.3,328H382.16V219.49s1.73-52.78,8.91-63.43a2,2,0,0,1,2.44-.84l19.22,7.93a2,2,0,0,0,.59.14c5.74.4,93.59,6.9,95.17,32.08a3.43,3.43,0,0,0,.07.56l7.35,37.26c.38,1.69-16.06,5.67-17.44,5.8-14.54,1.38-67.23,2.12-82.06,1.73-1.73,0-10.69-1.35-10.24.77,2,9.54,9.73,34,14.22,37.28,3.84,2.84,13.68,4,43.87,11.51,5.52,1.38,28.55,6.39,32.29,8.75,6.89,4.35,27.08,16,26.9,15.94v7.13a3,3,0,0,0,1.36,2.66l2.07,1.19a3.13,3.13,0,0,1,1.34,3Z" transform="translate(-52.71 -155.07)"/><path class="cls-1" d="M405.4,399.2H383.15c-1.27,0-1-7.15-1-8.76V341.56l22.91-.41,54.74-.75,24,19.28H523.3l.27.31a3.27,3.27,0,0,1,.76,2.16v28.94a3.16,3.16,0,0,1-1.07,2.47c-1.89,1.51-6.07,4.31-10.9,4.16H482.17c-1.79,0-3.14-1.6-3.57-3.8-2.11-10.79-9.79-41.11-31.46-40.62-24.26.55-30.49,27.2-32.74,42.25-.31,2.1-1.45,3.65-3.13,3.65Z" transform="translate(-52.71 -155.07)"/><path class="cls-1" d="M352.43,399.2H389.1l-.36-57.64L66.34,339.4c-1.4,0-2.5,1.51-2.37,3.28l.61,7.89c.15.82,1.48,9.29,1.67,10.09,3.34,14.09,7.4,23.64,14.93,30.95a25.75,25.75,0,0,0,18,7.59h7.94c3.42,0,6.87-3.44,7.62-7.67,3.46-19.6,12.74-38.3,29.75-38.3,17.32,0,29.21,17.69,32.45,37.47.76,4.68,4.47,8.5,8.24,8.5H352.43Z" transform="translate(-52.71 -155.07)"/><path class="cls-2" d="M519.06,291.61l-1.78-44.55c-.08-1.86-1.46-3.2-2.9-2.82l-16.29,4.39H415.38c1.73,1.89,3,21.76,10.68,24.75,24.22,9.48,68.66,12.45,72.24,16.63l18.63,10.31c1,.52,2.13-.44,2.13-1.83Z" transform="translate(-52.71 -155.07)"/><path class="cls-2" d="M167.28,351.55A183.83,183.83,0,0,1,187.1,377.4a3,3,0,0,0,3,1.41l121-21.43c3.7-.65,3.36-6.8-.38-6.93l-141.19-4.92C166.65,345.43,165.21,349.34,167.28,351.55Z" transform="translate(-52.71 -155.07)"/></g><path class="cls-1" d="M257.68,266.05c-1.65,0-3-.63-3-1.4s1.35-1.39,3-1.39H270.8a2.67,2.67,0,0,0,2.7-3l-7.26-71.85c-.07-.68-.47-1.19-.93-1.19H252.25c-.52,0-.93-.63-.93-1.4h0c0-.77.41-1.4.93-1.4h12.5c.57,0,1-.76.92-1.6L263,156.26c-.07-.68-.47-1.19-.93-1.19H218.2a2.81,2.81,0,1,0,0,5.6h33.49c.52,0,.94.62.94,1.39h0c0,.78-.42,1.4-.94,1.4h-5.17a3.39,3.39,0,0,0-3.3,3l-3,29.53c-.13,1.37-.92,2.38-1.85,2.38H224.17c-1,0-1.87,1.25-1.87,2.79h0c0,1.55.84,2.8,1.87,2.8H244.6c.51,0,.93.63.93,1.4h0c0,.77-.42,1.4-.93,1.4h-2.45a3.41,3.41,0,0,0-3.31,3L229.11,306a2.67,2.67,0,0,0,2.7,3h8.72a3.34,3.34,0,0,0,3.26-3l2.27-25.44a3.35,3.35,0,0,1,3.27-3h8.57a3.35,3.35,0,0,1,3.27,3l.87,9.74a2.7,2.7,0,0,1-2.73,3h-7.88a2.8,2.8,0,1,0,0,5.59h13.34c1.08,0,2,.63,2,1.4a1.67,1.67,0,0,1-1.84,1.4c-1,0-1.72,1.35-1.57,3l.12,1.33a3.36,3.36,0,0,0,3.27,3h8.71a2.66,2.66,0,0,0,2.7-3l-3.74-37a3.4,3.4,0,0,0-3.3-3Zm-5.17-57.93c.15-1.64.36-3.88.48-5s.4-2,.63-2,.51.9.63,2,.33,3.34.47,5l2.9,32.43c.15,1.68-.72,3.17-1.85,3.17h-1.16c-1,0-1.87,1.25-1.87,2.8h0c0,1.54.83,2.79,1.87,2.79h10.71c.52,0,.94.63.94,1.4h0c0,.77-.42,1.4-.94,1.4h-3.66c-1.65,0-3,.36-2.93.81s-1.28.81-2.93.81h-6.3c-.57,0-1-.75-.93-1.58Z" transform="translate(-52.71 -155.07)"/><path class="cls-1" d="M101.35,316.26h0c0-.77.42-1.39.93-1.39h20.5a.9.9,0,0,0,.76-.57l.45-1c3.5-8,4.91-18.22,4.91-29.75a85.88,85.88,0,0,0-1.69-18.85c-1.53-6.72-3.32-11.59-5.51-15a8.9,8.9,0,0,1,0-8.73,40.05,40.05,0,0,0,4.15-9.15c1.54-5,2-10.48,2-17.81,0-4.49-.37-9.16-.37-9.16a3.33,3.33,0,0,0-3.25-3h-8.74c-.52,0-.94-.63-.94-1.4h0c0-.77.42-1.4.94-1.4H125.6c.62,0,1.06-.89.9-1.78a50.18,50.18,0,0,0-1.58-6.49,1,1,0,0,0-.85-.78H108.6c-.51,0-.93-.63-.93-1.4h0c0-.77.42-1.4.93-1.4h13.14c.8,0,1.22-1.37.72-2.3a26.37,26.37,0,0,0-1.69-2.74c-4.49-6.29-16.84-8.47-16.84-8.47-1.62-.28-3-.52-3-.53H65.43c-1,0-1.87,1.25-1.87,2.79h0c0,1.55.83,2.8,1.87,2.8H100c.52,0,.94.63.94,1.4h0c0,.77-.42,1.4-.94,1.4H88.72c-1,0-1.87,1.25-1.87,2.79v49.49c0,1.55-.84,2.8-1.87,2.8H54.58c-1,0-1.87,1.25-1.87,2.8h0c0,1.54.83,2.79,1.87,2.79H89.19c.52,0,.94.63.94,1.4h0c0,.77-.42,1.4-.94,1.4h-1.4c-.52,0-.94.62-.94,1.4v70.06c0,2.79-1.51,5-3.37,5H71.33a2.8,2.8,0,1,0,0,5.59h31.16a26.76,26.76,0,0,0,5.9-.79s7.8-2.12,11.3-6.12c.72-.83.32-2.57-.6-2.57H102.28C101.77,317.66,101.35,317,101.35,316.26Zm.64-118.9c0-1,.54-1.78,1.2-1.76a8,8,0,0,1,5.52,2.3c2.53,2.52,4.49,7.54,4.49,18.23s-2,15.71-4.49,18.22a7.91,7.91,0,0,1-5.52,2.3c-.66,0-1.2-.77-1.2-1.76Zm0,61.4c0-.76.41-1.38.92-1.39a7.23,7.23,0,0,1,5.8,2.33c1.33,1.43,2.51,3.81,3.32,7.57.19.9-.26,1.83-.9,1.83h-4.91c-1,0-1.87,1.25-1.87,2.79h0c0,1.55.83,2.8,1.87,2.8h13.61c.52,0,.93.63.93,1.4h0c0,.77-.41,1.4-.93,1.4h-3.69c-1.65,0-3,1-2.94,2.31v1.26c0,12.57-2,18.64-4.49,21.37a7.21,7.21,0,0,1-5.8,2.32c-.51,0-.92-.62-.92-1.39Z" transform="translate(-52.71 -155.07)"/><path class="cls-1" d="M369.89,303.27h0c0-.78.42-1.4.93-1.4H376c.57,0,1-.76.92-1.61l-3.19-31.62c-.07-.68-.46-1.19-.93-1.19h-15.6c-.52,0-.94-.63-.94-1.4h0c0-.77.42-1.4.94-1.4h15c.57,0,1-.76.92-1.6l-8.65-85.62a3.39,3.39,0,0,0-3.3-3h-4.09c-.51,0-.93-.63-.93-1.4h0c0-.77.42-1.4.93-1.4h5.72c.57,0,1-.76.93-1.61l-1.28-12.59c-.13-1.37-.92-2.38-1.85-2.38H316.15c-1,0-1.87,1.25-1.87,2.8h0c0,1.54.83,2.8,1.87,2.8h34.61c.52,0,.94.62.94,1.39h0c0,.78-.42,1.4-.94,1.4h-5.47c-1.39,0-2.57,1.52-2.77,3.57l-.49,4.83c-.07.68-.46,1.19-.93,1.19H328.2a2.8,2.8,0,1,0,0,5.59h17.32c.52,0,.94.63.94,1.4h0c0,.77-.42,1.4-.94,1.4h-3.66c-.46,0-.85.5-.92,1.19l-5.65,55.91c-.14,1.37-.92,2.38-1.85,2.38H320.49c-1,0-1.87,1.26-1.87,2.8h0c0,1.54.84,2.8,1.87,2.8h20.43c.52,0,.93.62.93,1.39h0c0,.78-.41,1.4-.93,1.4H335c-.47,0-.86.51-.93,1.19L329,301.06c-.13,1.36-.92,2.38-1.85,2.38H324c-1,0-1.87,1.25-1.87,2.79h0c0,1.55.83,2.8,1.87,2.8h17.44c.84,0,1.56-.93,1.67-2.18l2.1-23.52c.29-3.27,2.16-5.72,4.37-5.72h6.85c2.21,0,4.08,2.45,4.37,5.72l2.1,23.52c.11,1.25.82,2.18,1.66,2.18h12c.65,0,1.15-.87,1-1.83h0c-.14-1.46-1-2.54-2-2.54h-4.8C370.31,304.66,369.89,304,369.89,303.27Zm-18-95.15c.14-1.64.36-3.88.47-5s.4-2,.63-2,.52.9.63,2,.33,3.34.48,5l1.21,13.54c.15,1.64-.05,3-.45,3h0c-1,0-1.87,1.25-1.87,2.79h0c0,1.55.84,2.8,1.87,2.8h6.91c.52,0,.94.62.94,1.4h0c0,.77-.42,1.4-.94,1.4h-2.44a2.69,2.69,0,0,0-2.73,3L358,252.15c.07.83-.36,1.58-.93,1.58h-8.23c-.57,0-1-.75-.93-1.58Z" transform="translate(-52.71 -155.07)"/><path class="cls-1" d="M194.74,314.87h0c0-.78.42-1.4.94-1.4h18.9c1.65,0,3.27-.66,3.59-1.46l.27-.79c2.74-8.17,3.84-19.9,4.25-36.47,0-.79-.4-1.46-.93-1.46h-5.62c-.52,0-.94-.62-.94-1.4h0c0-.77.42-1.39.94-1.39h5.73c.51,0,.93-.6.94-1.36.09-5.75.12-12,.12-18.87,0-30.16-.56-49.43-4.49-61.16s-22.7-15.35-22.7-15.35a37,37,0,0,0-5.94-.57h-7c-1,0-1.88,1.25-1.88,2.79v2.66a3,3,0,0,1-3,3H171c-1,0-1.87,1.25-1.87,2.79h0c0,1.55.83,2.8,1.87,2.8h14.64c1.65,0,3,.63,3,1.4s-1.35,1.4-3,1.4h-1.73a3,3,0,0,0-3,3V266.3c0,1.55-.83,2.8-1.87,2.8H164c-1,0-1.87,1.25-1.87,2.79h0c0,1.55.84,2.8,1.87,2.8h20.43c.52,0,.93.63.93,1.4h0c0,.77-.41,1.4-.93,1.4h-2.56c-.52,0-.94.62-.94,1.4v39.86c0,1.55-.83,2.8-1.87,2.8H155.92c-1,0-1.87,1.25-1.87,2.8h0c0,1.54.84,2.79,1.87,2.79h36.21c.37,0,2-.18,3.64-.4,0,0,14.37-1.95,18.87-8,.63-.86.22-2.44-.64-2.44H195.68C195.16,316.26,194.74,315.64,194.74,314.87ZM196,198.66c0-1.59.89-2.87,2-2.79,4,.28,6.37,1.75,7.71,8.11q.48,2.55.83,6.12c.17,1.7-.7,3.23-1.84,3.23h-4.33c-1,0-1.88,1.25-1.88,2.8h0c0,1.54.84,2.79,1.88,2.79h13.92c.52,0,.93.63.93,1.4h0c0,.77-.41,1.4-.93,1.4h-4.15a3,3,0,0,0-3,3s.09,13.56.09,25.34c0,12.57,0,22.41-.14,29.74a99,99,0,0,1-1.4,16.34c-1.54,7.54-6.69,8.07-6.69,8.07a2.65,2.65,0,0,1-3-2.69Z" transform="translate(-52.71 -155.07)"/><path class="cls-1" d="M301.53,319.06h0c0-.77.42-1.4.93-1.4h14.77A.91.91,0,0,0,318,317a45.3,45.3,0,0,0,2.45-7.27,128.8,128.8,0,0,0,2.26-14.61c.14-1.64.32-4.34.38-6,0,0,0-.78,0-1.41,0-3.52-.06-7-.21-10.31-.06-1.55-.91-2.76-1.95-2.76h-7.33c-.52,0-.94-.62-.94-1.4h0c0-.77.42-1.4.94-1.4h6.69c1.2,0,2.13-1.6,1.93-3.38-1.06-9.63-6.47-20.38-6.47-20.38a21.29,21.29,0,0,1-1.28-2.78c0-.06.58-1.36,1.2-2.88,0,0,6.15-15,6.15-37.86a63.55,63.55,0,0,0-2.66-18c-2.28-7-11.82-13.22-11.82-13.22a25.73,25.73,0,0,1-2.52-1.75,20.76,20.76,0,0,0-3-.11H270.44a2.8,2.8,0,1,0,0,5.59h33.49c.51,0,.93.63.93,1.4h0c0,.77-.42,1.4-.93,1.4H293.5c-3.48,0-6.61,3.14-7.93,7.95h0c-2.53,9.42-2.65,26.74-2.65,26.74a3,3,0,0,0,3,3h8.86a3.07,3.07,0,0,0,3.05-3l.66-15a32.36,32.36,0,0,1,1.19-5.84s.76-2.38,2.58-2.38c2.39,0,3.65,2.72,4.21,6.7a100.84,100.84,0,0,1,.56,13.2V224c0,.35-1.37.64-3,.64H291.34c-1,0-1.87,1.25-1.87,2.79h0c0,1.55.84,2.8,1.87,2.8h20.43c.51,0,.93.62.93,1.4h0c0,.77-.42,1.4-.93,1.4h-5.66a1,1,0,0,0-.78.61c-1.45,2.95-4.14,4.4-8.95,5-.48.06-.86.66-.86,1.4V256.2c0,.77.42,1.4.93,1.4h0c.18,0,1.62.28,3.2.63s5.16,3.3,5.9,4.78l2.63,10.24c.13,1.65.21,4.34.18,6,0,0-.09,5.38-.09,10.2a96.05,96.05,0,0,1-.56,13c-.56,3.77-1.82,6.49-4.2,6.49-1.83,0-3.09-1.26-3.93-5.45-.76-3.6-1.18-9.28-1.25-18,0-1.53-.84-2.77-1.87-2.77h-10c-1.65,0-3,0-3,0s-1.35,0-3,0h-.67c-1,0-1.87,1.25-1.87,2.8h0c0,1.54.84,2.8,1.87,2.8H293c.52,0,.94.62.94,1.39h0c0,.78-.42,1.4-.94,1.4H284.6c-.54,0-1,.68-.94,1.48a87,87,0,0,0,2.75,19.61c2.66,9.43,7.57,16.55,17.1,16.55a12.06,12.06,0,0,0,8.12-2.72,18.48,18.48,0,0,0,3-3.2c.64-.85.22-2.44-.63-2.44H302.46C302,320.46,301.53,319.83,301.53,319.06Z" transform="translate(-52.71 -155.07)"/><path class="cls-1" d="M172.48,298.87a3,3,0,0,0-3-3H156.11c-.52,0-.94-.62-.94-1.39h0c0-.78.42-1.4.94-1.4h13.37a3,3,0,0,0,3-3v-1.3a3,3,0,0,0-3-3H153.93c-.51,0-.93-.63-.93-1.4V247.26c0-2.09,1.14-3.79,2.54-3.79h9.52c1.08,0,1.95-1.31,1.95-2.92h0c0-1.6-.87-2.91-1.95-2.91h-7.75c-.51,0-.93-.62-.93-1.39h0c0-.78.42-1.4.93-1.4h7.86c1,0,1.84-1.24,1.84-2.76v-2.28c0-1.52-.82-2.76-1.84-2.76H152.35c-.51,0-.93-.62-.93-1.39h0c0-.78.42-1.4.93-1.4h12.82c1,0,1.84-1.24,1.84-2.76h0c0-1.52-.82-2.75-1.84-2.75H153.93c-.51,0-.93-.63-.93-1.4V194.43a3,3,0,0,0-3-3h-4.22c-.51,0-.93-.63-.93-1.4h0c0-.78.42-1.4.93-1.4h6.28c.52,0,.94-.63.94-1.4v-7.51c0-.77.42-1.4.93-1.4h17.61c.52,0,.94-.62.94-1.4V163.46c0-.77-.42-1.4-.94-1.4H163.6c-.51,0-.93-.62-.93-1.39h0c0-.78.42-1.4.93-1.4h7.48c.77,0,1.4-.94,1.4-2.1h0c0-1.16-.63-2.1-1.4-2.1h-59c-1,0-1.87,1.25-1.87,2.8h0c0,1.54.83,2.8,1.87,2.8h34.61c.52,0,.94.62.94,1.39h0c0,.78-.42,1.4-.94,1.4H138.8c-.52,0-.94.63-.94,1.4v73.06a3,3,0,0,1-3,3h-6c-1,0-1.87,1.26-1.87,2.8h0c0,1.54.84,2.8,1.87,2.8h16.71c.52,0,.93.62.93,1.39h0c0,.78-.41,1.4-.93,1.4h-4.72a3,3,0,0,0-3,3v48.13a3,3,0,0,1-3,3h-4a2.8,2.8,0,1,0,0,5.59h38.64a3,3,0,0,0,3-3Z" transform="translate(-52.71 -155.07)"/><g id="wheel3"><ellipse class="cls-3" cx="92.52" cy="244.13" rx="26.26" ry="38.47"/><ellipse class="cls-4" cx="92.52" cy="244.13" rx="14.65" ry="21.47"/><path class="cls-3" d="M137.11,385.33c.54-.82,1.55,0,1.22,1a26.06,26.06,0,0,0-1.35,8.38c0,10.35,5.73,18.74,12.79,18.74a8.51,8.51,0,0,0,1.95-.22c.79-.18,1.19,1.18.5,1.7a9.64,9.64,0,0,1-5.84,2.06c-7.07,0-12.8-8.39-12.8-18.74A23.89,23.89,0,0,1,137.11,385.33Z" transform="translate(-52.71 -155.07)"/></g><g id="wheel3-2" data-name="wheel3"><ellipse class="cls-3" cx="393.35" cy="243.58" rx="26.26" ry="38.47"/><ellipse class="cls-4" cx="393.35" cy="243.58" rx="14.65" ry="21.47"/><path class="cls-3" d="M437.94,384.78c.54-.83,1.55,0,1.22,1a25.79,25.79,0,0,0-1.35,8.38c0,10.35,5.73,18.74,12.79,18.74a8.94,8.94,0,0,0,1.94-.22c.79-.18,1.2,1.17.51,1.69a9.68,9.68,0,0,1-5.85,2.07c-7.06,0-12.79-8.39-12.79-18.74A23.78,23.78,0,0,1,437.94,384.78Z" transform="translate(-52.71 -155.07)"/></g></svg>